<svg width="16" height="12" viewBox="0 0 16 12" fill="none" xmlns="http://www.w3.org/2000/svg">
<path d="M15.6246 3.49516H13.7537L13.2337 2.19442C12.6993 0.857093 11.424 -0.00683594 9.98427 -0.00683594H6.01552C4.57614 -0.00683594 3.30052 0.857093 2.76583 2.19442L2.24583 3.49516H0.375199C0.131137 3.49516 -0.0479262 3.72466 0.0114489 3.96136L0.198949 4.71179C0.240512 4.87876 0.390512 4.99601 0.5627 4.99601H1.18989C0.7702 5.36278 0.499887 5.8959 0.499887 6.49687V7.99772C0.499887 8.50176 0.692387 8.95671 0.999888 9.30878V10.9994C0.999888 11.5519 1.4477 12 1.99989 12H2.99989C3.55208 12 3.99989 11.5519 3.99989 10.9994V9.99886H11.9999V10.9994C11.9999 11.5519 12.4477 12 12.9999 12H13.9999C14.5521 12 14.9999 11.5519 14.9999 10.9994V9.30878C15.3074 8.95702 15.4999 8.50207 15.4999 7.99772V6.49687C15.4999 5.8959 15.2296 5.36278 14.8102 4.99601H15.4374C15.6096 4.99601 15.7596 4.87876 15.8012 4.71179L15.9887 3.96136C16.0477 3.72466 15.8687 3.49516 15.6246 3.49516ZM4.6227 2.93765C4.85052 2.36795 5.40208 1.9943 6.01552 1.9943H9.98427C10.5977 1.9943 11.1493 2.36795 11.3771 2.93765L11.9999 4.49573H3.99989L4.6227 2.93765ZM2.99989 7.99147C2.39989 7.99147 1.99989 7.59249 1.99989 6.99403C1.99989 6.39556 2.39989 5.99658 2.99989 5.99658C3.59989 5.99658 4.49989 6.89428 4.49989 7.49275C4.49989 8.09121 3.59989 7.99147 2.99989 7.99147ZM12.9999 7.99147C12.3999 7.99147 11.4999 8.09121 11.4999 7.49275C11.4999 6.89428 12.3999 5.99658 12.9999 5.99658C13.5999 5.99658 13.9999 6.39556 13.9999 6.99403C13.9999 7.59249 13.5999 7.99147 12.9999 7.99147Z" fill="#333333"/>
</svg>
